HIERARCHY
ROOT Hips
{
	OFFSET	0.00	0.00	0.00
	CHANNELS 6 Xposition Yposition Zposition Zrotation Xrotation Yrotation
	JOINT Chest
	{
		OFFSET	 0.000000	 4.570000	 0.000000
		CHANNELS 3 Zrotation Xrotation Yrotation
		JOINT Neck
		{
			OFFSET	 0.000000	 17.620001	 0.000000
			CHANNELS 3 Zrotation Xrotation Yrotation
			JOINT Head
			{
				OFFSET	 0.000000	 5.190000	 0.000000
				CHANNELS 3 Zrotation Xrotation Yrotation
				End Site 
				{
					OFFSET	 0.000000	 4.140008	 0.000000
				}
			}
		}
		JOINT LeftCollar
		{
			OFFSET	 1.060000	 15.330000	 01.760000
			CHANNELS 3 Zrotation Xrotation Yrotation
			JOINT LeftShoulder
			{
				OFFSET	 5.00000	 0.000000	 0.000000
				CHANNELS 3 Zrotation Xrotation Yrotation
				JOINT LeftElbow
				{
					OFFSET	 0.000000	-11.90000	 0.000000
					CHANNELS 3 Zrotation Xrotation Yrotation
					JOINT LeftWrist
					{
						OFFSET	 0.000000	-9.520000	 0.000000
						CHANNELS 3 Zrotation Xrotation Yrotation
						End Site 
						{
							OFFSET	 0.000000	-7.0	 0.000000
						}
					}
				}
			}
		}
		JOINT RightCollar
		{
			OFFSET	-1.060000	 15.330000	 01.760000
			CHANNELS 3 Zrotation Xrotation Yrotation
			JOINT RightShoulder
			{
				OFFSET	-5.000000	 0.000000	 0.000000
				CHANNELS 3 Zrotation Xrotation Yrotation
				JOINT RightElbow
				{
					OFFSET	 0.000000	-11.900000	 0.000000
					CHANNELS 3 Zrotation Xrotation Yrotation
					JOINT RightWrist
					{
						OFFSET	 0.000000	-9.520000	 0.000000
						CHANNELS 3 Zrotation Xrotation Yrotation
						End Site 
						{
							OFFSET	 0.000000	-7.0	 0.000000
						}
					}
				}
			}
		}
	}
	JOINT LeftHip
	{
		OFFSET	 3.430000	 0.000000	 0.000000
		CHANNELS 3 Zrotation Xrotation Yrotation
		JOINT LeftKnee
		{
			OFFSET	 0.000000	-19.0	 0.000000
			CHANNELS 3 Zrotation Xrotation Yrotation
			JOINT LeftAnkle
			{
				OFFSET	 0.000000	-15.00000	 0.000000
				CHANNELS 3 Zrotation Xrotation Yrotation
				End Site 
				{
					OFFSET	 0.000000	-3.0	 0.000000
				}
			}
		}
	}
	JOINT RightHip
	{
		OFFSET	-3.430000	 0.000000	 0.000000
		CHANNELS 3 Zrotation Xrotation Yrotation
		JOINT RightKnee
		{
			OFFSET	 0.000000	-19.0	 0.000000
			CHANNELS 3 Zrotation Xrotation Yrotation
			JOINT RightAnkle
			{
				OFFSET	 0.000000	-15.00000	 0.000000
				CHANNELS 3 Zrotation Xrotation Yrotation
				End Site 
				{
					OFFSET	 0.000000	-3.0	 0.000000
				}
			}
		}
	}
}
MOTION
Frames: 8
Frame Time: 0.033333333
-3.235015	33.959411	-4.698561	-0.613750	3.489817	1.352544	-3.552905	19.042873	6.108010	-352.319507	-330.207836	-2.397197	352.184515	343.939029	-13.915488	34.178693	23.010519	18.098619	350.958524	327.141081	-4.608696	144.922772	-115.114926	57.535197	-16.842510	-3.913573	51.665766	340.713568	-339.747178	-35.469718	-17.174409	-1.194138	75.638114	298.115237	332.565699	-21.682795	-158.208733	165.295191	105.050574	8.155755	-9.287688	21.224003	-348.004221	-337.135314	-2.052682	358.050227	-342.831282	-30.854720	353.410698	351.289378	-2.333763	-7.607094	34.115080	3.213171	35.868249	6.838210	8.137073	
-3.826179	33.905680	-4.954857	-0.904496	3.696670	1.544781	-2.917848	19.396560	6.029878	-352.689840	-330.105356	-2.298229	352.386962	343.577931	-12.892846	34.848427	23.089649	17.350031	349.464406	325.625216	-5.385598	143.904336	-115.367875	56.018959	-15.952268	-4.543521	51.647386	341.241105	-339.797585	-35.783985	-17.975782	-3.413319	74.578308	298.569581	334.056074	-21.391045	-157.493844	166.957686	104.840095	9.521414	-12.178491	22.108965	-346.328093	-333.712624	-3.171660	356.030158	-341.053083	-31.013388	354.530549	349.858617	-1.980212	-7.287986	35.388637	3.279378	30.690546	3.679140	7.841678	
-4.336813	33.846127	-5.117400	-1.540369	3.256144	0.810088	-2.019836	20.231600	5.898300	-353.218305	-329.873648	-2.165372	352.674841	343.335240	-11.091037	35.255690	23.165503	16.662680	348.063316	324.863923	-6.089344	142.027127	-115.334571	53.666263	-16.368848	-4.766047	51.489957	341.615126	-339.813896	-35.918792	-19.252066	-5.864747	73.204169	299.792868	335.826732	-22.786439	-158.899798	168.050243	104.931217	11.465708	-13.838868	23.257301	-344.728053	-330.505523	-4.407982	354.025497	-338.622574	-31.267273	355.822848	349.224858	-1.469460	-6.505155	36.579873	3.125074	28.193924	1.655405	8.208103	
-4.748196	33.696374	-5.218396	357.790953	-357.314069	-1.101764	-1.265980	21.028603	5.763716	-353.509599	-329.744175	-2.090637	352.288252	344.017986	-7.600330	35.135797	23.202311	16.396605	346.578952	324.363516	-6.819571	140.181938	-115.751964	50.918226	-17.053384	-5.465205	51.133971	341.384702	-339.822365	-35.917983	-21.046059	-8.075538	71.607674	299.537091	338.306691	-22.839349	-158.096308	166.137817	105.085231	13.584999	-14.471524	24.475344	-343.386631	-327.636980	-5.625239	353.345320	-337.862511	-30.900011	357.310545	348.738357	-0.848377	-6.333261	37.702353	3.200241	30.039714	2.197666	10.113262	
-5.045030	33.570273	-5.328099	357.397179	-357.171100	-3.823206	-1.024332	21.075453	5.725440	-354.698708	-329.549324	-1.740743	352.695359	344.447605	-4.631742	35.196493	23.221925	16.223748	344.993747	323.676754	-7.607506	137.345606	-116.911935	47.140885	-16.679190	-5.217120	51.316730	340.692886	-339.813158	-35.760834	-22.786330	-9.689634	70.209323	298.919450	341.312111	-23.987047	-158.783247	168.671435	104.992688	15.274148	-14.922370	25.487511	-342.653396	-325.611037	-6.471260	352.853710	-338.501789	-29.007884	358.956374	347.302897	-0.122843	-7.402642	38.872159	3.844550	28.694696	2.643818	11.339195	
-5.214122	33.511295	-5.404371	357.279399	-357.188476	-6.419069	-0.975559	21.489668	5.699038	-355.906340	-329.805920	-1.344038	352.944852	344.908397	-1.990969	35.402458	23.317497	15.383034	343.213472	322.146519	-8.547135	133.903150	-118.379551	42.654093	-16.098918	-4.322790	51.685963	340.257038	-339.913097	-36.129716	-25.000611	-10.430504	68.716742	297.511366	344.797256	-26.584793	-159.977615	170.585800	105.006724	16.419255	-14.946718	26.153372	-342.021932	-324.008756	-7.192910	351.767218	-338.206370	-27.561342	0.332632	-13.633165	0.531538	-8.835526	39.512715	4.613960	24.518898	1.899132	11.538210	
-5.189568	33.532245	-5.460090	358.188798	-357.372781	-8.275294	-1.897101	22.047258	5.827701	-355.839240	-330.116175	-1.340922	-7.781064	-14.755614	0.325667	36.285311	23.531014	13.250896	339.480938	319.445370	-10.526584	131.484157	-119.644898	37.419645	-17.201433	-5.671538	51.025220	340.388533	-340.254443	-37.629967	-29.041448	-10.439651	66.275038	294.099769	349.962573	-24.533147	-156.738275	170.667763	104.849732	16.011396	-15.397444	25.984800	-340.935194	-322.273724	-8.194815	350.325611	-336.589637	-27.428335	-0.140266	-14.205424	0.330367	-9.651301	39.761607	5.045052	21.064672	1.400717	11.952773	
-5.142088	33.591906	-5.487448	358.466841	-357.451602	-10.030870	-2.273314	22.567088	5.878149	-356.152145	-330.344986	-1.230001	-7.972266	-14.717707	2.029311	37.766997	23.648525	11.662426	333.800488	316.818207	-13.478241	129.807195	-122.074670	34.700328	-14.263260	-4.378455	51.950076	340.431645	-340.586062	-39.025767	-33.127021	-10.224254	63.880155	293.538190	353.212377	-27.491550	-160.904841	171.470241	105.146169	16.515233	-15.581985	26.309782	-340.058690	-320.933341	-9.026428	349.806763	-335.032026	-29.227851	-0.098900	-14.365086	0.355171	-10.028939	39.351167	5.146728	20.757236	2.479060	12.973199	
